<svg width="31" height="31" viewBox="0 0 31 31" fill="none" xmlns="http://www.w3.org/2000/svg">
<path d="M9.17537 0.229064L9.17538 0.229135L9.17914 0.228821C10.7242 0.100068 11.2364 0.1 15.5 0.1C19.7636 0.1 20.2758 0.100068 21.8209 0.228821L21.8209 0.228892L21.8246 0.229064C24.6493 0.357459 26.8185 1.19119 28.3137 2.68634C29.8088 4.18148 30.6425 6.35068 30.7709 9.17537L30.7709 9.17538L30.7712 9.17914C30.8999 10.7242 30.9 11.2364 30.9 15.5C30.9 19.7636 30.8999 20.2758 30.7712 21.8209L30.7711 21.8209L30.7709 21.8246C30.6425 24.6493 29.8088 26.8185 28.3137 28.3137C26.8185 29.8088 24.6493 30.6425 21.8246 30.7709L21.8246 30.7709L21.8209 30.7712C20.2758 30.8999 19.7636 30.9 15.5 30.9C11.2364 30.9 10.7242 30.8999 9.17914 30.7712L9.17914 30.7711L9.17537 30.7709C6.35068 30.6425 4.18148 29.8088 2.68634 28.3137C1.19119 26.8185 0.357459 24.6493 0.229064 21.8246L0.229135 21.8246L0.228821 21.8209C0.100068 20.2758 0.1 19.7636 0.1 15.5C0.1 11.2364 0.100068 10.7242 0.228821 9.17914L0.228892 9.17914L0.229064 9.17537C0.357459 6.35068 1.19119 4.18148 2.68634 2.68634C4.18148 1.19119 6.35068 0.357459 9.17537 0.229064ZM26.615 4.56369C25.5574 3.48953 23.979 2.9363 21.8345 2.87095C20.1534 2.74167 19.6311 2.74167 15.5049 2.74167H15.5H15.4937C11.3694 2.74167 10.8464 2.74167 9.29428 2.87096C7.21378 2.9364 5.63633 3.48995 4.56314 4.56314C3.48995 5.63633 2.9364 7.21378 2.87096 9.29428C2.74167 10.8464 2.74167 11.3694 2.74167 15.4937V15.5V15.5045C2.74167 19.6312 2.74167 20.0243 2.87095 21.7054C2.93627 23.7845 3.45681 25.3624 4.51416 26.4363C5.57174 27.5104 7.15 28.0636 9.29432 28.129C10.8464 28.2583 11.3695 28.2583 15.4936 28.2583H15.5H15.5049C19.7602 28.2583 20.1535 28.2583 21.8346 28.129C23.9152 28.0637 25.4928 27.5101 26.566 26.4369C27.6392 25.3637 28.1928 23.7862 28.2582 21.7057C28.3875 20.1536 28.3875 19.6306 28.3875 15.5062V15.5V15.4956C28.3875 11.3688 28.3875 10.9757 28.2582 9.2946C28.1929 7.2155 27.6724 5.63756 26.615 4.56369ZM7.59167 15.5C7.59167 11.1636 11.1636 7.59167 15.5 7.59167C19.8364 7.59167 23.4083 11.1636 23.4083 15.5C23.4083 19.8364 19.8364 23.4083 15.5 23.4083C11.1636 23.4083 7.59167 19.8364 7.59167 15.5ZM10.2333 15.5C10.2333 18.3969 12.6031 20.7667 15.5 20.7667C18.3969 20.7667 20.7667 18.3969 20.7667 15.5C20.7667 12.6031 18.3969 10.2333 15.5 10.2333C12.6031 10.2333 10.2333 12.6031 10.2333 15.5ZM22.0583 7.23333C22.0583 6.25523 22.7886 5.525 23.7667 5.525C24.7448 5.525 25.475 6.25523 25.475 7.23333C25.475 8.21144 24.7448 8.94167 23.7667 8.94167C22.7886 8.94167 22.0583 8.21144 22.0583 7.23333Z" fill="white" stroke="#222222" stroke-width="0.2"/>
</svg>
