<svg width="31" height="26" viewBox="0 0 31 26" fill="none" xmlns="http://www.w3.org/2000/svg">
<path fill-rule="evenodd" clip-rule="evenodd" d="M2.13109 11.1928C10.4526 7.52363 16.0015 5.10467 18.778 3.93595C26.7052 0.599007 28.3525 0.0193449 29.4261 0.000204084C29.6622 -0.00400572 30.1902 0.0552205 30.5322 0.336076C30.821 0.573225 30.9005 0.89358 30.9385 1.11842C30.9765 1.34327 31.0239 1.85547 30.9862 2.25568C30.5566 6.8237 28.6978 17.9091 27.7522 23.0253C27.352 25.1902 26.5642 25.9161 25.8014 25.9871C24.1437 26.1415 22.885 24.8784 21.2794 23.8133C18.7671 22.1466 17.3478 21.1091 14.9091 19.4827C12.0908 17.6031 13.9178 16.57 15.5239 14.8817C15.9443 14.4399 23.248 7.7166 23.3894 7.10669C23.407 7.03041 23.4235 6.74607 23.2565 6.59594C23.0896 6.4458 22.8433 6.49714 22.6655 6.53797C22.4136 6.59585 18.4001 9.28057 10.625 14.5921C9.48582 15.3838 8.45395 15.7696 7.52943 15.7494C6.51023 15.7271 4.54968 15.1661 3.09221 14.6867C1.30457 14.0986 -0.116208 13.7877 0.00751004 12.7889C0.0719501 12.2687 0.779809 11.7367 2.13109 11.1928Z" fill="white"/>
</svg>
