<svg width="28" height="24" viewBox="0 0 28 24" fill="none" xmlns="http://www.w3.org/2000/svg">
<path d="M8.80575 24C19.3723 24 25.1507 14.7674 25.1507 6.76166C25.1507 6.49935 25.1456 6.23838 25.1342 5.97842C26.2558 5.1233 27.2309 4.05592 28 2.84143C26.9707 3.32373 25.8631 3.64852 24.7011 3.79495C25.887 3.04496 26.7978 1.85801 27.2274 0.443344C26.1173 1.13758 24.888 1.64205 23.5798 1.9141C22.5311 0.736555 21.0381 0 19.3863 0C16.2135 0 13.6406 2.71346 13.6406 6.05802C13.6406 6.53361 13.6913 6.99576 13.7893 7.43944C9.0153 7.18653 4.78168 4.77535 1.94866 1.1097C1.45473 2.00479 1.17034 3.0453 1.17034 4.15467C1.17034 6.25652 2.18464 8.11218 3.72694 9.19804C2.78462 9.16747 1.8993 8.89408 1.12512 8.43999C1.12385 8.46517 1.12385 8.4907 1.12385 8.51723C1.12385 11.4517 3.10435 13.9015 5.73261 14.4567C5.25014 14.5954 4.74251 14.67 4.21833 14.67C3.84828 14.67 3.48842 14.631 3.13843 14.5608C3.86961 16.9676 5.99056 18.7195 8.50512 18.7689C6.53863 20.3941 4.06165 21.3624 1.37034 21.3624C0.906975 21.3624 0.449666 21.3346 0 21.2785C2.54227 22.9968 5.56096 24 8.80575 24Z" fill="white"/>
</svg>
